<svg width="400" height="400" viewBox="0 0 400 400" fill="none" xmlns="http://www.w3.org/2000/svg">
<rect width="400" height="400" rx="100" fill="#425579" fill-opacity="0.8"/>
<rect x="40" y="40" width="320" height="320" rx="60" fill="#506691" fill-opacity="0.9"/>
<path d="M223.5 146.25L191.5 258.25C190.25 262.5 186 265 181.75 263.75C177.5 262.5 175 258.25 176.25 254L208.25 142C209.5 137.75 213.75 135.25 218 136.5C222.25 137.75 224.75 142 223.5 146.25ZM249.5 166.5L277.5 194.5C280.75 197.5 280.75 202.75 277.5 205.75L249.5 233.75C246.5 237 241.25 237 238.25 233.75C235 230.75 235 225.5 238.25 222.5L260.5 200L238.25 177.75C235 174.75 235 169.5 238.25 166.5C241.25 163.25 246.5 163.25 249.5 166.5ZM161.5 177.75L139.25 200L161.5 222.5C164.75 225.5 164.75 230.75 161.5 233.75C158.5 237 153.25 237 150.25 233.75L122.25 205.75C119 202.75 119 197.5 122.25 194.5L150.25 166.5C153.25 163.25 158.5 163.25 161.5 166.5C164.75 169.5 164.75 174.75 161.5 177.75Z" fill="#263248"/>
</svg>
